  0
SECTION
  2
HEADER
  9
$ACADVER
  1
AC1009
  9
$DWGCODEPAGE
  3
ansi_1252
  9
$INSBASE
 10
0.0
 20
0.0
 30
0.0
  9
$EXTMIN
 10
11923.350586
 20
-2861.82251
 30
0.0
  9
$EXTMAX
 10
23213.350586
 20
3438.17749
 30
0.0
  9
$LIMMIN
 10
0.0
 20
0.0
  9
$LIMMAX
 10
12.0
 20
9.0
  9
$ORTHOMODE
 70
     0
  9
$REGENMODE
 70
     1
  9
$FILLMODE
 70
     1
  9
$QTEXTMODE
 70
     0
  9
$MIRRTEXT
 70
     1
  9
$DRAGMODE
 70
     2
  9
$LTSCALE
 40
1.0
  9
$OSMODE
 70
    37
  9
$ATTMODE
 70
     1
  9
$TEXTSIZE
 40
1.0
  9
$TRACEWID
 40
0.05
  9
$TEXTSTYLE
  7
STANDARD
  9
$CLAYER
  8
0
  9
$CELTYPE
  6
BYBLOCK
  9
$CECOLOR
 62
   256
  9
$DIMSCALE
 40
1.0
  9
$DIMASZ
 40
0.18
  9
$DIMEXO
 40
0.0625
  9
$DIMDLI
 40
0.38
  9
$DIMRND
 40
0.0
  9
$DIMDLE
 40
0.0
  9
$DIMEXE
 40
0.18
  9
$DIMTP
 40
0.0
  9
$DIMTM
 40
0.0
  9
$DIMTXT
 40
0.18
  9
$DIMCEN
 40
0.09
  9
$DIMTSZ
 40
0.0
  9
$DIMTOL
 70
     0
  9
$DIMLIM
 70
     0
  9
$DIMTIH
 70
     1
  9
$DIMTOH
 70
     1
  9
$DIMSE1
 70
     0
  9
$DIMSE2
 70
     0
  9
$DIMTAD
 70
     0
  9
$DIMZIN
 70
     0
  9
$DIMBLK
  1

  9
$DIMASO
 70
     1
  9
$DIMSHO
 70
     1
  9
$DIMPOST
  1

  9
$DIMAPOST
  1

  9
$DIMALT
 70
     0
  9
$DIMALTD
 70
     2
  9
$DIMALTF
 40
25.4
  9
$DIMLFAC
 40
1.0
  9
$DIMTOFL
 70
     0
  9
$DIMTVP
 40
0.0
  9
$DIMTIX
 70
     0
  9
$DIMSOXD
 70
     0
  9
$DIMSAH
 70
     0
  9
$DIMBLK1
  1

  9
$DIMBLK2
  1

  9
$DIMSTYLE
  2
STANDARD
  9
$DIMCLRD
 70
     0
  9
$DIMCLRE
 70
     0
  9
$DIMCLRT
 70
     0
  9
$DIMTFAC
 40
1.0
  9
$DIMGAP
 40
0.09
  9
$LUNITS
 70
     2
  9
$LUPREC
 70
     4
  9
$SKETCHINC
 40
0.1
  9
$FILLETRAD
 40
0.5
  9
$AUNITS
 70
     0
  9
$AUPREC
 70
     0
  9
$MENU
  1
.
  9
$ELEVATION
 40
0.0
  9
$PELEVATION
 40
0.0
  9
$THICKNESS
 40
0.0
  9
$LIMCHECK
 70
     0
  9
$CHAMFERA
 40
0.0
  9
$CHAMFERB
 40
0.0
  9
$SKPOLY
 70
     0
  9
$TDCREATE
 40
2447892.875
  9
$TDUPDATE
 40
2459137.78592588
  9
$TDINDWG
 40
0.0
  9
$TDUSRTIMER
 40
0.0
  9
$USRTIMER
 70
     1
  9
$ANGBASE
 50
0.0
  9
$ANGDIR
 70
     0
  9
$PDMODE
 70
     0
  9
$PDSIZE
 40
0.0
  9
$PLINEWID
 40
0.0
  9
$COORDS
 70
     1
  9
$SPLFRAME
 70
     0
  9
$SPLINETYPE
 70
     6
  9
$SPLINESEGS
 70
     8
  9
$ATTDIA
 70
     0
  9
$ATTREQ
 70
     1
  9
$HANDLING
 70
     1
  9
$HANDSEED
  5
20134
  9
$SURFTAB1
 70
     6
  9
$SURFTAB2
 70
     6
  9
$SURFTYPE
 70
     6
  9
$SURFU
 70
     6
  9
$SURFV
 70
     6
  9
$UCSNAME
  2

  9
$UCSORG
 10
0.0
 20
0.0
 30
0.0
  9
$UCSXDIR
 10
1.0
 20
0.0
 30
0.0
  9
$UCSYDIR
 10
0.0
 20
1.0
 30
0.0
  9
$PUCSNAME
  2

  9
$PUCSORG
 10
0.0
 20
0.0
 30
0.0
  9
$PUCSXDIR
 10
1.0
 20
0.0
 30
0.0
  9
$PUCSYDIR
 10
0.0
 20
1.0
 30
0.0
  9
$USERI1
 70
     0
  9
$USERI2
 70
     0
  9
$USERI3
 70
     0
  9
$USERI4
 70
     0
  9
$USERI5
 70
     0
  9
$USERR1
 40
0.0
  9
$USERR2
 40
0.0
  9
$USERR3
 40
0.0
  9
$USERR4
 40
0.0
  9
$USERR5
 40
0.0
  9
$WORLDVIEW
 70
     1
  9
$SHADEDGE
 70
     3
  9
$SHADEDIF
 70
    70
  9
$TILEMODE
 70
     1
  9
$MAXACTVP
 70
    64
  9
$PLIMCHECK
 70
     0
  9
$PEXTMIN
 10
1.000000E+20
 20
1.000000E+20
 30
1.000000E+20
  9
$PEXTMAX
 10
-1.000000E+20
 20
-1.000000E+20
 30
-1.000000E+20
  9
$PLIMMIN
 10
0.0
 20
0.0
  9
$PLIMMAX
 10
12.0
 20
9.0
  9
$UNITMODE
 70
     0
  9
$VISRETAIN
 70
     1
  9
$PLINEGEN
 70
     0
  9
$PSLTSCALE
 70
     0
  0
ENDSEC
  0
SECTION
  2
TABLES
  0
TABLE
  2
VPORT
 70
     1
  0
VPORT
  2
*ACTIVE
 70
     0
 10
0.0
 20
0.0
 11
1.0
 21
1.0
 12
19174.342875
 22
-1053.781054
 13
0.0
 23
0.0
 14
10.0
 24
10.0
 15
10.0
 25
10.0
 16
0.0
 26
0.0
 36
1.0
 17
0.0
 27
0.0
 37
0.0
 40
9684.200743
 41
2.223934
 42
50.0
 43
0.0
 44
0.0
 50
0.0
 51
0.0
 71
    16
 72
   100
 73
     1
 74
     3
 75
     0
 76
     0
 77
     0
 78
     0
  0
ENDTAB
  0
TABLE
  2
LTYPE
 70
    25
  0
LTYPE
  2
CONTINUOUS
 70
     0
  3
Solid line
 72
    65
 73
     0
 40
0.0
  0
ENDTAB
  0
TABLE
  2
LAYER
 70
     7
  0
LAYER
  2
0
 70
     0
 62
     7
  6
CONTINUOUS
  0
LAYER
  2
DEFPOINTS
 70
     0
 62
     7
  6
CONTINUOUS
  0
LAYER
  2
DIMENSION
 70
     0
 62
     3
  6
CONTINUOUS
  0
LAYER
  2
VIGAS
 70
     0
 62
     7
  6
CONTINUOUS
  0
LAYER
  2
LOSA
 70
     0
 62
     7
  6
CONTINUOUS
  0
LAYER
  2
ESCALERA
 70
     0
 62
     7
  6
CONTINUOUS
  0
LAYER
  2
FUNDACIONES
 70
     0
 62
     7
  6
CONTINUOUS
  0
ENDTAB
  0
TABLE
  2
STYLE
 70
     1
  0
STYLE
  2
STANDARD
 70
     0
 40
0.0
 41
1.0
 50
0.0
 71
     0
 42
1.0
  3
txt
  4

  0
ENDTAB
  0
TABLE
  2
VIEW
 70
     0
  0
ENDTAB
  0
TABLE
  2
UCS
 70
     0
  0
ENDTAB
  0
TABLE
  2
APPID
 70
     7
  0
APPID
  2
ACAD
 70
     0
  0
APPID
  2
LIBRECAD
 70
     0
  0
APPID
  2
MCS_DIM1
 70
     0
  0
APPID
  2
MCSXDATA5
 70
     0
  0
APPID
  2
MCS_DOCUMENT_ID
 70
     0
  0
APPID
  2
MCS_PARAMS_DATA
 70
     0
  0
APPID
  2
MC_VERSION_DATA
 70
     0
  0
ENDTAB
  0
TABLE
  2
DIMSTYLE
 70
     1
  0
DIMSTYLE
  2
STANDARD
 70
     0
  3

  4

  5

  6

  7

 40
1.0
 41
0.18
 42
0.0625
 43
0.38
 44
0.18
 45
0.0
 46
0.0
 47
0.0
 48
0.0
140
0.18
141
0.09
142
0.0
143
25.4
144
1.0
145
0.0
146
1.0
147
0.09
 71
     0
 72
     0
 73
     1
 74
     1
 75
     0
 76
     0
 77
     0
 78
     0
170
     0
171
     2
172
     0
173
     0
174
     0
175
     0
176
     0
177
     0
178
     0
  0
ENDTAB
  0
ENDSEC
  0
SECTION
  2
BLOCKS
  0
BLOCK
  8
0
  2
$MODEL_SPACE
 70
     0
 10
0.0
 20
0.0
 30
0.0
  3
$MODEL_SPACE
  1

  0
ENDBLK
  5
21
  8
0
  0
BLOCK
 67
     1
  8
0
  2
$PAPER_SPACE
 70
     0
 10
0.0
 20
0.0
 30
0.0
  3
$PAPER_SPACE
  1

  0
ENDBLK
  5
1D
 67
     1
  8
0
  0
BLOCK
  8
0
  2
*D1
 70
     1
 10
0.0
 20
0.0
 30
0.0
  3
*D1
  1

  0
LINE
  5
20053
  8
DIMENSION
 62
     0
 10
22968.350586
 20
3438.23999
 30
0.0
 11
22968.350586
 21
3438.35749
 31
0.0
  0
LINE
  5
20054
  8
DIMENSION
 62
     0
 10
13308.350586
 20
3438.23999
 30
0.0
 11
13308.350586
 21
3438.35749
 31
0.0
  0
LINE
  5
20055
  8
DIMENSION
 62
     0
 10
22968.170586
 20
3438.17749
 30
0.0
 11
18139.085586
 21
3438.17749
 31
0.0
  0
LINE
  5
20056
  8
DIMENSION
 62
     0
 10
13308.530586
 20
3438.17749
 30
0.0
 11
18137.615586
 21
3438.17749
 31
0.0
  0
SOLID
  5
20057
  8
DIMENSION
 62
     0
 10
22968.170586
 20
3438.14749
 30
0.0
 11
22968.170586
 21
3438.20749
 31
0.0
 12
22968.350586
 22
3438.17749
 32
0.0
 13
22968.350586
 23
3438.17749
 33
0.0
  0
SOLID
  5
20058
  8
DIMENSION
 62
     0
 10
13308.530586
 20
3438.20749
 30
0.0
 11
13308.530586
 21
3438.14749
 31
0.0
 12
13308.350586
 22
3438.17749
 32
0.0
 13
13308.350586
 23
3438.17749
 33
0.0
  0
TEXT
  5
20059
  8
DIMENSION
  6
CONTINUOUS
 62
     0
 10
18137.705586
 20
3438.08749
 30
0.0
 40
0.18
  1
9660.0000
  0
POINT
  5
2005A
  8
DEFPOINTS
 62
     0
 10
22968.350586
 20
3438.17749
 30
0.0
  0
POINT
  5
2005B
  8
DEFPOINTS
 62
     0
 10
13308.350586
 20
3438.17749
 30
0.0
  0
POINT
  5
2005C
  8
DEFPOINTS
 62
     0
 10
13308.350586
 20
3438.17749
 30
0.0
  0
ENDBLK
  5
20052
  8
0
  0
BLOCK
  8
0
  2
*D2
 70
     1
 10
0.0
 20
0.0
 30
0.0
  3
*D2
  1

  0
LINE
  5
20065
  8
DIMENSION
 62
     0
 10
13308.350586
 20
3438.17749
 30
0.0
 11
13308.170586
 21
3438.17749
 31
0.0
  0
LINE
  5
20066
  8
DIMENSION
 62
     0
 10
22968.288086
 20
3438.17749
 30
0.0
 11
13308.170586
 21
3438.17749
 31
0.0
  0
LINE
  5
20067
  8
DIMENSION
 62
     0
 10
13308.350586
 20
3438.23999
 30
0.0
 11
13308.350586
 21
3438.35749
 31
0.0
  0
ARC
  5
20068
  8
DIMENSION
 62
     0
 10
13308.350586
 20
3438.17749
 30
0.0
 40
0.0
 50
0.0
 51
180.0
  0
ARC
  5
20069
  8
DIMENSION
 62
     0
 10
13308.350586
 20
3438.17749
 30
0.0
 40
0.0
 50
180.0
 51
0.0
  0
SOLID
  5
2006A
  8
DIMENSION
 62
     0
 10
13308.380586
 20
3437.99749
 30
0.0
 11
13308.320586
 21
3437.99749
 31
0.0
 12
13308.350586
 22
3438.17749
 32
0.0
 13
13308.350586
 23
3438.17749
 33
0.0
  0
SOLID
  5
2006B
  8
DIMENSION
 62
     0
 10
13308.380586
 20
3437.99749
 30
0.0
 11
13308.320586
 21
3437.99749
 31
0.0
 12
13308.350586
 22
3438.17749
 32
0.0
 13
13308.350586
 23
3438.17749
 33
0.0
  0
TEXT
  5
2006C
  8
DIMENSION
  6
CONTINUOUS
 62
     0
 10
13307.870586
 20
3438.08749
 30
0.0
 40
0.18
  1
0°
  0
POINT
  5
2006D
  8
DEFPOINTS
 62
     0
 10
13308.350586
 20
3438.17749
 30
0.0
  0
POINT
  5
2006E
  8
DEFPOINTS
 62
     0
 10
22968.350586
 20
3438.17749
 30
0.0
  0
POINT
  5
2006F
  8
DEFPOINTS
 62
     0
 10
13308.350586
 20
3438.17749
 30
0.0
  0
POINT
  5
20072
  8
DEFPOINTS
 62
     0
 10
13308.350586
 20
3438.17749
 30
0.0
  0
ENDBLK
  5
20064
  8
0
  0
BLOCK
  8
0
  2
*D3
 70
     1
 10
0.0
 20
0.0
 30
0.0
  3
*D3
  1

  0
LINE
  5
20077
  8
DIMENSION
 62
     0
 10
22968.350586
 20
3438.23999
 30
0.0
 11
22968.350586
 21
4073.03749
 31
0.0
  0
LINE
  5
20078
  8
DIMENSION
 62
     0
 10
13308.350586
 20
3438.23999
 30
0.0
 11
13308.350586
 21
4073.03749
 31
0.0
  0
LINE
  5
20079
  8
DIMENSION
 62
     0
 10
22968.170586
 20
4072.85749
 30
0.0
 11
18139.085586
 21
4072.85749
 31
0.0
  0
LINE
  5
2007A
  8
DIMENSION
 62
     0
 10
13308.530586
 20
4072.85749
 30
0.0
 11
18137.615586
 21
4072.85749
 31
0.0
  0
SOLID
  5
2007B
  8
DIMENSION
 62
     0
 10
22968.170586
 20
4072.82749
 30
0.0
 11
22968.170586
 21
4072.88749
 31
0.0
 12
22968.350586
 22
4072.85749
 32
0.0
 13
22968.350586
 23
4072.85749
 33
0.0
  0
SOLID
  5
2007C
  8
DIMENSION
 62
     0
 10
13308.530586
 20
4072.88749
 30
0.0
 11
13308.530586
 21
4072.82749
 31
0.0
 12
13308.350586
 22
4072.85749
 32
0.0
 13
13308.350586
 23
4072.85749
 33
0.0
  0
TEXT
  5
2007D
  8
DIMENSION
  6
CONTINUOUS
 62
     0
 10
18137.705586
 20
4072.76749
 30
0.0
 40
0.18
  1
9660.0000
  0
POINT
  5
2007E
  8
DEFPOINTS
 62
     0
 10
22968.350586
 20
3438.17749
 30
0.0
  0
POINT
  5
2007F
  8
DEFPOINTS
 62
     0
 10
13308.350586
 20
3438.17749
 30
0.0
  0
POINT
  5
20080
  8
DEFPOINTS
 62
     0
 10
13308.350586
 20
4072.85749
 30
0.0
  0
ENDBLK
  5
20076
  8
0
  0
ENDSEC
  0
SECTION
  2
ENTITIES
  0
LINE
  5
CC
  8
FUNDACIONES
 62
     0
 10
11923.350586
 20
-2206.82251
 30
0.0
 11
12182.695312
 21
-2206.82251
 31
0.0
  0
LINE
  5
CD
  8
FUNDACIONES
 62
     0
 10
12182.695312
 20
-1416.82251
 30
0.0
 11
11923.350586
 21
-1416.82251
 31
0.0
  0
LINE
  5
CE
  8
FUNDACIONES
 62
     0
 10
11923.350586
 20
-1416.82251
 30
0.0
 11
11923.350586
 21
-2206.82251
 31
0.0
  0
LINE
  5
CF
  8
FUNDACIONES
 62
     0
 10
11923.350586
 20
1993.17749
 30
0.0
 11
12182.695312
 21
1993.17749
 31
0.0
  0
LINE
  5
D0
  8
FUNDACIONES
 62
     0
 10
12713.350586
 20
2623.17749
 30
0.0
 11
12713.350586
 21
2783.17749
 31
0.0
  0
LINE
  5
D1
  8
FUNDACIONES
 62
     0
 10
12713.350586
 20
2783.17749
 30
0.0
 11
11923.350586
 21
2783.17749
 31
0.0
  0
LINE
  5
D2
  8
FUNDACIONES
 62
     0
 10
11923.350586
 20
2783.17749
 30
0.0
 11
11923.350586
 21
1993.17749
 31
0.0
  0
LINE
  5
D3
  8
FUNDACIONES
 62
     0
 10
22968.350586
 20
1993.17749
 30
0.0
 11
23213.350586
 21
1993.17749
 31
0.0
  0
LINE
  5
D4
  8
FUNDACIONES
 62
     0
 10
23213.350586
 20
1993.17749
 30
0.0
 11
23213.350586
 21
2783.17749
 31
0.0
  0
LINE
  5
D5
  8
FUNDACIONES
 62
     0
 10
23213.350586
 20
2783.17749
 30
0.0
 11
22968.350586
 21
2783.17749
 31
0.0
  0
LINE
  5
D6
  8
FUNDACIONES
 62
     0
 10
22968.350586
 20
-2206.82251
 30
0.0
 11
23213.350586
 21
-2206.82251
 31
0.0
  0
LINE
  5
D7
  8
FUNDACIONES
 62
     0
 10
23213.350586
 20
-2206.82251
 30
0.0
 11
23213.350586
 21
-1416.82251
 31
0.0
  0
LINE
  5
D8
  8
FUNDACIONES
 62
     0
 10
23213.350586
 20
-1416.82251
 30
0.0
 11
22968.350586
 21
-1416.82251
 31
0.0
  0
LINE
  5
D9
  8
VIGAS
 62
     0
 10
12218.350586
 20
2288.17749
 30
0.0
 11
12418.350586
 21
2288.17749
 31
0.0
  0
LINE
  5
DA
  8
VIGAS
 62
     0
 10
12418.350586
 20
2288.17749
 30
0.0
 11
12418.350586
 21
2488.17749
 31
0.0
  0
LINE
  5
DB
  8
VIGAS
 62
     0
 10
12418.350586
 20
2488.17749
 30
0.0
 11
12218.350586
 21
2488.17749
 31
0.0
  0
LINE
  5
DC
  8
VIGAS
 62
     0
 10
12218.350586
 20
2488.17749
 30
0.0
 11
12218.350586
 21
2288.17749
 31
0.0
  0
LINE
  5
DD
  8
VIGAS
 62
     0
 10
12218.350586
 20
-1911.82251
 30
0.0
 11
12418.350586
 21
-1911.82251
 31
0.0
  0
LINE
  5
DE
  8
VIGAS
 62
     0
 10
12418.350586
 20
-1911.82251
 30
0.0
 11
12418.350586
 21
-1711.82251
 31
0.0
  0
LINE
  5
DF
  8
VIGAS
 62
     0
 10
12418.350586
 20
-1711.82251
 30
0.0
 11
12218.350586
 21
-1711.82251
 31
0.0
  0
LINE
  5
E0
  8
VIGAS
 62
     0
 10
12218.350586
 20
-1711.82251
 30
0.0
 11
12218.350586
 21
-1911.82251
 31
0.0
  0
LINE
  5
E1
  8
VIGAS
 62
     0
 10
18518.350586
 20
2288.17749
 30
0.0
 11
18718.350586
 21
2288.17749
 31
0.0
  0
LINE
  5
E2
  8
VIGAS
 62
     0
 10
18718.350586
 20
2288.17749
 30
0.0
 11
18718.350586
 21
2488.17749
 31
0.0
  0
LINE
  5
E3
  8
VIGAS
 62
     0
 10
18718.350586
 20
2488.17749
 30
0.0
 11
18518.350586
 21
2488.17749
 31
0.0
  0
LINE
  5
E4
  8
VIGAS
 62
     0
 10
18518.350586
 20
2488.17749
 30
0.0
 11
18518.350586
 21
2288.17749
 31
0.0
  0
LINE
  5
E5
  8
VIGAS
 62
     0
 10
18518.350586
 20
-1911.82251
 30
0.0
 11
18718.350586
 21
-1911.82251
 31
0.0
  0
LINE
  5
E6
  8
VIGAS
 62
     0
 10
18718.350586
 20
-1911.82251
 30
0.0
 11
18718.350586
 21
-1711.82251
 31
0.0
  0
LINE
  5
E7
  8
VIGAS
 62
     0
 10
18718.350586
 20
-1711.82251
 30
0.0
 11
18518.350586
 21
-1711.82251
 31
0.0
  0
LINE
  5
E8
  8
VIGAS
 62
     0
 10
18518.350586
 20
-1711.82251
 30
0.0
 11
18518.350586
 21
-1911.82251
 31
0.0
  0
LINE
  5
E9
  8
VIGAS
 62
     0
 10
22718.350586
 20
2288.17749
 30
0.0
 11
22918.350586
 21
2288.17749
 31
0.0
  0
LINE
  5
EA
  8
VIGAS
 62
     0
 10
22918.350586
 20
2288.17749
 30
0.0
 11
22918.350586
 21
2488.17749
 31
0.0
  0
LINE
  5
EB
  8
VIGAS
 62
     0
 10
22918.350586
 20
2488.17749
 30
0.0
 11
22718.350586
 21
2488.17749
 31
0.0
  0
LINE
  5
EC
  8
VIGAS
 62
     0
 10
22718.350586
 20
2488.17749
 30
0.0
 11
22718.350586
 21
2288.17749
 31
0.0
  0
LINE
  5
ED
  8
VIGAS
 62
     0
 10
22718.350586
 20
-1911.82251
 30
0.0
 11
22918.350586
 21
-1911.82251
 31
0.0
  0
LINE
  5
EE
  8
VIGAS
 62
     0
 10
22918.350586
 20
-1911.82251
 30
0.0
 11
22918.350586
 21
-1711.82251
 31
0.0
  0
LINE
  5
EF
  8
VIGAS
 62
     0
 10
22918.350586
 20
-1711.82251
 30
0.0
 11
22718.350586
 21
-1711.82251
 31
0.0
  0
LINE
  5
F0
  8
VIGAS
 62
     0
 10
22718.350586
 20
-1711.82251
 30
0.0
 11
22718.350586
 21
-1911.82251
 31
0.0
  0
LINE
  5
F1
  8
VIGAS
 62
     0
 10
14318.350586
 20
2288.17749
 30
0.0
 11
14518.350586
 21
2288.17749
 31
0.0
  0
LINE
  5
F2
  8
VIGAS
 62
     0
 10
14518.350586
 20
2288.17749
 30
0.0
 11
14518.350586
 21
2488.17749
 31
0.0
  0
LINE
  5
F3
  8
VIGAS
 62
     0
 10
14518.350586
 20
2488.17749
 30
0.0
 11
14318.350586
 21
2488.17749
 31
0.0
  0
LINE
  5
F4
  8
VIGAS
 62
     0
 10
14318.350586
 20
2488.17749
 30
0.0
 11
14318.350586
 21
2288.17749
 31
0.0
  0
LINE
  5
F5
  8
VIGAS
 62
     0
 10
14318.350586
 20
-1911.82251
 30
0.0
 11
14518.350586
 21
-1911.82251
 31
0.0
  0
LINE
  5
F6
  8
VIGAS
 62
     0
 10
14518.350586
 20
-1911.82251
 30
0.0
 11
14518.350586
 21
-1711.82251
 31
0.0
  0
LINE
  5
F7
  8
VIGAS
 62
     0
 10
14518.350586
 20
-1711.82251
 30
0.0
 11
14318.350586
 21
-1711.82251
 31
0.0
  0
LINE
  5
F8
  8
VIGAS
 62
     0
 10
14318.350586
 20
-1711.82251
 30
0.0
 11
14318.350586
 21
-1911.82251
 31
0.0
  0
LINE
  5
F9
  8
LOSA
 62
     0
 10
12218.350586
 20
2623.17749
 30
0.0
 11
12182.695312
 21
2623.17749
 31
0.0
  0
LINE
  5
FA
  8
LOSA
 62
     0
 10
12182.695312
 20
2623.17749
 30
0.0
 11
12182.695312
 21
-2861.82251
 31
0.0
  0
LINE
  5
FB
  8
LOSA
 62
     0
 10
12182.695312
 20
-2861.82251
 30
0.0
 11
12418.350586
 21
-2861.82251
 31
0.0
  0
LINE
  5
FC
  8
LOSA
 62
     0
 10
22968.350586
 20
3438.17749
 30
0.0
 11
13308.350586
 21
3438.17749
 31
0.0
  0
LINE
  5
FD
  8
LOSA
 62
     0
 10
13308.350586
 20
3438.17749
 30
0.0
 11
13308.350586
 21
2623.17749
 31
0.0
  0
LINE
  5
FE
  8
LOSA
 62
     0
 10
13308.350586
 20
2623.17749
 30
0.0
 11
12218.350586
 21
2623.17749
 31
0.0
  0
LINE
  5
FF
  8
LOSA
 62
     0
 10
12218.350586
 20
2623.17749
 30
0.0
 11
12218.350586
 21
1213.17749
 31
0.0
  0
LINE
  5
100
  8
LOSA
 62
     0
 10
12218.350586
 20
1213.17749
 30
0.0
 11
14318.350586
 21
1213.17749
 31
0.0
  0
LINE
  5
101
  8
ESCALERA
 62
     0
 10
14318.350586
 20
1213.17749
 30
0.0
 11
14318.350586
 21
-2861.82251
 31
0.0
  0
LINE
  5
102
  8
LOSA
 62
     0
 10
14318.350586
 20
-2861.82251
 30
0.0
 11
22968.350586
 21
-2861.82251
 31
0.0
  0
LINE
  5
103
  8
LOSA
 62
     0
 10
22968.350586
 20
-2861.82251
 30
0.0
 11
22968.350586
 21
3438.17749
 31
0.0
  0
LINE
  5
104
  8
ESCALERA
 62
     0
 10
12418.350586
 20
1213.17749
 30
0.0
 11
12418.350586
 21
877.621935
 31
0.0
  0
LINE
  5
105
  8
ESCALERA
 62
     0
 10
13368.350586
 20
877.621935
 30
0.0
 11
12418.350586
 21
877.621935
 31
0.0
  0
LINE
  5
106
  8
ESCALERA
 62
     0
 10
12418.350586
 20
877.621935
 30
0.0
 11
12418.350586
 21
542.066379
 31
0.0
  0
LINE
  5
107
  8
ESCALERA
 62
     0
 10
13368.350586
 20
542.066379
 30
0.0
 11
12418.350586
 21
542.066379
 31
0.0
  0
LINE
  5
108
  8
ESCALERA
 62
     0
 10
12418.350586
 20
542.066379
 30
0.0
 11
12418.350586
 21
206.510824
 31
0.0
  0
LINE
  5
109
  8
ESCALERA
 62
     0
 10
13368.350586
 20
206.510824
 30
0.0
 11
12418.350586
 21
206.510824
 31
0.0
  0
LINE
  5
10A
  8
ESCALERA
 62
     0
 10
12418.350586
 20
206.510824
 30
0.0
 11
12418.350586
 21
-129.044732
 31
0.0
  0
LINE
  5
10B
  8
ESCALERA
 62
     0
 10
13368.350586
 20
-129.044732
 30
0.0
 11
12418.350586
 21
-129.044732
 31
0.0
  0
LINE
  5
10C
  8
ESCALERA
 62
     0
 10
12418.350586
 20
-129.044732
 30
0.0
 11
12418.350586
 21
-464.600288
 31
0.0
  0
LINE
  5
10D
  8
ESCALERA
 62
     0
 10
13368.350586
 20
-464.600288
 30
0.0
 11
12418.350586
 21
-464.600288
 31
0.0
  0
LINE
  5
10E
  8
ESCALERA
 62
     0
 10
12418.350586
 20
-464.600288
 30
0.0
 11
12418.350586
 21
-800.155843
 31
0.0
  0
LINE
  5
10F
  8
ESCALERA
 62
     0
 10
13368.350586
 20
-800.155843
 30
0.0
 11
12418.350586
 21
-800.155843
 31
0.0
  0
LINE
  5
110
  8
ESCALERA
 62
     0
 10
12418.350586
 20
-800.155843
 30
0.0
 11
12418.350586
 21
-1135.711399
 31
0.0
  0
LINE
  5
111
  8
ESCALERA
 62
     0
 10
13368.350586
 20
-1135.711399
 30
0.0
 11
12418.350586
 21
-1135.711399
 31
0.0
  0
LINE
  5
112
  8
ESCALERA
 62
     0
 10
12418.350586
 20
-1135.711399
 30
0.0
 11
12418.350586
 21
-1471.266954
 31
0.0
  0
LINE
  5
113
  8
ESCALERA
 62
     0
 10
13368.350586
 20
-1471.266954
 30
0.0
 11
12418.350586
 21
-1471.266954
 31
0.0
  0
LINE
  5
114
  8
ESCALERA
 62
     0
 10
13368.350586
 20
-1806.82251
 30
0.0
 11
12418.350586
 21
-1806.82251
 31
0.0
  0
LINE
  5
115
  8
ESCALERA
 62
     0
 10
12418.350586
 20
-1471.266954
 30
0.0
 11
12418.350586
 21
-1711.82251
 31
0.0
  0
LINE
  5
116
  8
ESCALERA
 62
     0
 10
13368.350586
 20
-1806.82251
 30
0.0
 11
14318.350586
 21
-1806.82251
 31
0.0
  0
LINE
  5
117
  8
ESCALERA
 62
     0
 10
13368.350586
 20
-1806.82251
 30
0.0
 11
13368.350586
 21
-1471.266954
 31
0.0
  0
LINE
  5
118
  8
ESCALERA
 62
     0
 10
13368.350586
 20
-1471.266954
 30
0.0
 11
14318.350586
 21
-1471.266954
 31
0.0
  0
LINE
  5
119
  8
ESCALERA
 62
     0
 10
13368.350586
 20
-1471.266954
 30
0.0
 11
13368.350586
 21
-1135.711399
 31
0.0
  0
LINE
  5
11A
  8
ESCALERA
 62
     0
 10
13368.350586
 20
-1135.711399
 30
0.0
 11
14318.350586
 21
-1135.711399
 31
0.0
  0
LINE
  5
11B
  8
ESCALERA
 62
     0
 10
13368.350586
 20
-1135.711399
 30
0.0
 11
13368.350586
 21
-800.155843
 31
0.0
  0
LINE
  5
11C
  8
ESCALERA
 62
     0
 10
13368.350586
 20
-800.155843
 30
0.0
 11
14318.350586
 21
-800.155843
 31
0.0
  0
LINE
  5
11D
  8
ESCALERA
 62
     0
 10
13368.350586
 20
-800.155843
 30
0.0
 11
13368.350586
 21
-464.600288
 31
0.0
  0
LINE
  5
11E
  8
ESCALERA
 62
     0
 10
13368.350586
 20
-464.600288
 30
0.0
 11
14318.350586
 21
-464.600288
 31
0.0
  0
LINE
  5
11F
  8
ESCALERA
 62
     0
 10
13368.350586
 20
-464.600288
 30
0.0
 11
13368.350586
 21
-129.044732
 31
0.0
  0
LINE
  5
120
  8
ESCALERA
 62
     0
 10
13368.350586
 20
-129.044732
 30
0.0
 11
14318.350586
 21
-129.044732
 31
0.0
  0
LINE
  5
121
  8
ESCALERA
 62
     0
 10
13368.350586
 20
-129.044732
 30
0.0
 11
13368.350586
 21
206.510824
 31
0.0
  0
LINE
  5
122
  8
ESCALERA
 62
     0
 10
13368.350586
 20
206.510824
 30
0.0
 11
14318.350586
 21
206.510824
 31
0.0
  0
LINE
  5
123
  8
ESCALERA
 62
     0
 10
13368.350586
 20
206.510824
 30
0.0
 11
13368.350586
 21
542.066379
 31
0.0
  0
LINE
  5
124
  8
ESCALERA
 62
     0
 10
13368.350586
 20
542.066379
 30
0.0
 11
14318.350586
 21
542.066379
 31
0.0
  0
LINE
  5
125
  8
ESCALERA
 62
     0
 10
13368.350586
 20
542.066379
 30
0.0
 11
13368.350586
 21
877.621935
 31
0.0
  0
LINE
  5
126
  8
ESCALERA
 62
     0
 10
13368.350586
 20
877.621935
 30
0.0
 11
14318.350586
 21
877.621935
 31
0.0
  0
LINE
  5
127
  8
ESCALERA
 62
     0
 10
13368.350586
 20
1213.17749
 30
0.0
 11
14318.350586
 21
1213.17749
 31
0.0
  0
LINE
  5
128
  8
ESCALERA
 62
     0
 10
13368.350586
 20
877.621935
 30
0.0
 11
13368.350586
 21
1213.17749
 31
0.0
  0
LINE
  5
129
  8
ESCALERA
 62
     0
 10
13368.350586
 20
-1806.82251
 30
0.0
 11
12418.350586
 21
-1806.82251
 31
0.0
  0
LINE
  5
12A
  8
ESCALERA
 62
     0
 10
12418.350586
 20
-1911.82251
 30
0.0
 11
12418.350586
 21
-2861.82251
 31
0.0
  0
LINE
  5
12B
  8
LOSA
 62
     0
 10
12418.350586
 20
-2861.82251
 30
0.0
 11
14318.350586
 21
-2861.82251
 31
0.0
  0
LINE
  5
12C
  8
VIGAS
 62
     0
 10
14518.350586
 20
-1711.82251
 30
0.0
 11
18518.350586
 21
-1711.82251
 31
0.0
  0
LINE
  5
12D
  8
VIGAS
 62
     0
 10
14518.350586
 20
-1911.82251
 30
0.0
 11
18518.350586
 21
-1911.82251
 31
0.0
  0
LINE
  5
12E
  8
VIGAS
 62
     0
 10
14518.350586
 20
-1711.82251
 30
0.0
 11
14518.350586
 21
-1911.82251
 31
0.0
  0
LINE
  5
12F
  8
VIGAS
 62
     0
 10
18518.350586
 20
-1711.82251
 30
0.0
 11
18518.350586
 21
-1911.82251
 31
0.0
  0
LINE
  5
130
  8
VIGAS
 62
     0
 10
18718.350586
 20
-1711.82251
 30
0.0
 11
22718.350586
 21
-1711.82251
 31
0.0
  0
LINE
  5
131
  8
VIGAS
 62
     0
 10
18718.350586
 20
-1911.82251
 30
0.0
 11
22718.350586
 21
-1911.82251
 31
0.0
  0
LINE
  5
132
  8
VIGAS
 62
     0
 10
18718.350586
 20
-1711.82251
 30
0.0
 11
18718.350586
 21
-1911.82251
 31
0.0
  0
LINE
  5
133
  8
VIGAS
 62
     0
 10
22718.350586
 20
-1711.82251
 30
0.0
 11
22718.350586
 21
-1911.82251
 31
0.0
  0
LINE
  5
134
  8
VIGAS
 62
     0
 10
22918.350586
 20
2288.17749
 30
0.0
 11
22918.350586
 21
-1711.82251
 31
0.0
  0
LINE
  5
135
  8
VIGAS
 62
     0
 10
22718.350586
 20
2288.17749
 30
0.0
 11
22718.350586
 21
-1711.82251
 31
0.0
  0
LINE
  5
136
  8
VIGAS
 62
     0
 10
22918.350586
 20
2288.17749
 30
0.0
 11
22718.350586
 21
2288.17749
 31
0.0
  0
LINE
  5
137
  8
VIGAS
 62
     0
 10
22918.350586
 20
-1711.82251
 30
0.0
 11
22718.350586
 21
-1711.82251
 31
0.0
  0
LINE
  5
138
  8
VIGAS
 62
     0
 10
22718.350586
 20
2288.17749
 30
0.0
 11
18718.350586
 21
2288.17749
 31
0.0
  0
LINE
  5
139
  8
VIGAS
 62
     0
 10
22718.350586
 20
2488.17749
 30
0.0
 11
18718.350586
 21
2488.17749
 31
0.0
  0
LINE
  5
13A
  8
VIGAS
 62
     0
 10
22718.350586
 20
2288.17749
 30
0.0
 11
22718.350586
 21
2488.17749
 31
0.0
  0
LINE
  5
13B
  8
VIGAS
 62
     0
 10
18718.350586
 20
2288.17749
 30
0.0
 11
18718.350586
 21
2488.17749
 31
0.0
  0
LINE
  5
13C
  8
VIGAS
 62
     0
 10
18518.350586
 20
2288.17749
 30
0.0
 11
14518.350586
 21
2288.17749
 31
0.0
  0
LINE
  5
13D
  8
VIGAS
 62
     0
 10
18518.350586
 20
2488.17749
 30
0.0
 11
14518.350586
 21
2488.17749
 31
0.0
  0
LINE
  5
13E
  8
VIGAS
 62
     0
 10
18518.350586
 20
2288.17749
 30
0.0
 11
18518.350586
 21
2488.17749
 31
0.0
  0
LINE
  5
13F
  8
VIGAS
 62
     0
 10
14518.350586
 20
2288.17749
 30
0.0
 11
14518.350586
 21
2488.17749
 31
0.0
  0
LINE
  5
140
  8
VIGAS
 62
     0
 10
18718.350586
 20
2288.17749
 30
0.0
 11
18718.350586
 21
-1711.82251
 31
0.0
  0
LINE
  5
141
  8
VIGAS
 62
     0
 10
18518.350586
 20
2288.17749
 30
0.0
 11
18518.350586
 21
-1711.82251
 31
0.0
  0
LINE
  5
142
  8
VIGAS
 62
     0
 10
18718.350586
 20
2288.17749
 30
0.0
 11
18518.350586
 21
2288.17749
 31
0.0
  0
LINE
  5
143
  8
VIGAS
 62
     0
 10
18718.350586
 20
-1711.82251
 30
0.0
 11
18518.350586
 21
-1711.82251
 31
0.0
  0
LINE
  5
144
  8
VIGAS
 62
     0
 10
14518.350586
 20
2288.17749
 30
0.0
 11
14518.350586
 21
-1711.82251
 31
0.0
  0
LINE
  5
145
  8
VIGAS
 62
     0
 10
14318.350586
 20
2288.17749
 30
0.0
 11
14318.350586
 21
-1711.82251
 31
0.0
  0
LINE
  5
146
  8
VIGAS
 62
     0
 10
14518.350586
 20
2288.17749
 30
0.0
 11
14318.350586
 21
2288.17749
 31
0.0
  0
LINE
  5
147
  8
VIGAS
 62
     0
 10
14518.350586
 20
-1711.82251
 30
0.0
 11
14318.350586
 21
-1711.82251
 31
0.0
  0
ENDSEC
  0
EOF
